<?xml version="1.0" encoding="UTF-8"?>
<svg id="Ebene_2" data-name="Ebene 2" xmlns="http://www.w3.org/2000/svg" viewBox="0 0 28.35 28.35">
  <g id="Ebene_1-2" data-name="Ebene 1">
    <g id="elements">
      <path d="M0,0H.98V.98H0V0ZM.98,0h.98V.98H.98V0Zm.98,0h.98V.98h-.98V0Zm.98,0h.98V.98h-.98V0Zm.98,0h.98V.98h-.98V0Zm.98,0h.98V.98h-.98V0Zm.98,0h.98V.98h-.98V0Zm2.93,0h.98V.98h-.98V0Zm5.86,0h.98V.98h-.98V0Zm.98,0h.98V.98h-.98V0Zm.98,0h.98V.98h-.98V0Zm.98,0h.98V.98h-.98V0Zm.98,0h.98V.98h-.98V0Zm.98,0h.98V.98h-.98V0Zm1.95,0h.98V.98h-.98V0Zm.98,0h.98V.98h-.98V0Zm.98,0h.98V.98h-.98V0Zm.98,0h.98V.98h-.98V0Zm.98,0h.98V.98h-.98V0Zm.98,0h.98V.98h-.98V0Zm.98,0h.98V.98h-.98V0ZM0,.98H.98v.98H0V.98ZM5.86,.98h.98v.98h-.98V.98Zm1.95,0h.98v.98h-.98V.98Zm.98,0h.98v.98h-.98V.98Zm1.95,0h.98v.98h-.98V.98Zm.98,0h.98v.98h-.98V.98Zm.98,0h.98v.98h-.98V.98Zm.98,0h.98v.98h-.98V.98Zm.98,0h.98v.98h-.98V.98Zm4.89,0h.98v.98h-.98V.98Zm1.95,0h.98v.98h-.98V.98Zm5.86,0h.98v.98h-.98V.98ZM0,1.95H.98v.98H0v-.98Zm1.95,0h.98v.98h-.98v-.98Zm.98,0h.98v.98h-.98v-.98Zm.98,0h.98v.98h-.98v-.98Zm1.95,0h.98v.98h-.98v-.98Zm2.93,0h.98v.98h-.98v-.98Zm.98,0h.98v.98h-.98v-.98Zm.98,0h.98v.98h-.98v-.98Zm4.89,0h.98v.98h-.98v-.98Zm2.93,0h.98v.98h-.98v-.98Zm.98,0h.98v.98h-.98v-.98Zm1.95,0h.98v.98h-.98v-.98Zm1.95,0h.98v.98h-.98v-.98Zm.98,0h.98v.98h-.98v-.98Zm.98,0h.98v.98h-.98v-.98Zm1.95,0h.98v.98h-.98v-.98ZM0,2.93H.98v.98H0v-.98Zm1.95,0h.98v.98h-.98v-.98Zm.98,0h.98v.98h-.98v-.98Zm.98,0h.98v.98h-.98v-.98Zm1.95,0h.98v.98h-.98v-.98Zm1.95,0h.98v.98h-.98v-.98Zm.98,0h.98v.98h-.98v-.98Zm1.95,0h.98v.98h-.98v-.98Zm1.95,0h.98v.98h-.98v-.98Zm.98,0h.98v.98h-.98v-.98Zm.98,0h.98v.98h-.98v-.98Zm1.95,0h.98v.98h-.98v-.98Zm.98,0h.98v.98h-.98v-.98Zm.98,0h.98v.98h-.98v-.98Zm2.93,0h.98v.98h-.98v-.98Zm1.95,0h.98v.98h-.98v-.98Zm.98,0h.98v.98h-.98v-.98Zm.98,0h.98v.98h-.98v-.98Zm1.95,0h.98v.98h-.98v-.98ZM0,3.91H.98v.98H0v-.98Zm1.95,0h.98v.98h-.98v-.98Zm.98,0h.98v.98h-.98v-.98Zm.98,0h.98v.98h-.98v-.98Zm1.95,0h.98v.98h-.98v-.98Zm3.91,0h.98v.98h-.98v-.98Zm1.95,0h.98v.98h-.98v-.98Zm3.91,0h.98v.98h-.98v-.98Zm.98,0h.98v.98h-.98v-.98Zm.98,0h.98v.98h-.98v-.98Zm.98,0h.98v.98h-.98v-.98Zm.98,0h.98v.98h-.98v-.98Zm1.95,0h.98v.98h-.98v-.98Zm1.95,0h.98v.98h-.98v-.98Zm.98,0h.98v.98h-.98v-.98Zm.98,0h.98v.98h-.98v-.98Zm1.95,0h.98v.98h-.98v-.98ZM0,4.89H.98v.98H0v-.98Zm5.86,0h.98v.98h-.98v-.98Zm1.95,0h.98v.98h-.98v-.98Zm1.95,0h.98v.98h-.98v-.98Zm4.89,0h.98v.98h-.98v-.98Zm.98,0h.98v.98h-.98v-.98Zm.98,0h.98v.98h-.98v-.98Zm2.93,0h.98v.98h-.98v-.98Zm1.95,0h.98v.98h-.98v-.98Zm5.86,0h.98v.98h-.98v-.98ZM0,5.86H.98v.98H0v-.98Zm.98,0h.98v.98H.98v-.98Zm.98,0h.98v.98h-.98v-.98Zm.98,0h.98v.98h-.98v-.98Zm.98,0h.98v.98h-.98v-.98Zm.98,0h.98v.98h-.98v-.98Zm.98,0h.98v.98h-.98v-.98Zm1.95,0h.98v.98h-.98v-.98Zm1.95,0h.98v.98h-.98v-.98Zm1.95,0h.98v.98h-.98v-.98Zm1.95,0h.98v.98h-.98v-.98Zm1.95,0h.98v.98h-.98v-.98Zm1.95,0h.98v.98h-.98v-.98Zm1.95,0h.98v.98h-.98v-.98Zm1.95,0h.98v.98h-.98v-.98Zm.98,0h.98v.98h-.98v-.98Zm.98,0h.98v.98h-.98v-.98Zm.98,0h.98v.98h-.98v-.98Zm.98,0h.98v.98h-.98v-.98Zm.98,0h.98v.98h-.98v-.98Zm.98,0h.98v.98h-.98v-.98Zm-15.64,.98h.98v.98h-.98v-.98Zm1.95,0h.98v.98h-.98v-.98Zm.98,0h.98v.98h-.98v-.98Zm.98,0h.98v.98h-.98v-.98Zm2.93,0h.98v.98h-.98v-.98ZM0,7.82H.98v.98H0v-.98Zm.98,0h.98v.98H.98v-.98Zm.98,0h.98v.98h-.98v-.98Zm.98,0h.98v.98h-.98v-.98Zm.98,0h.98v.98h-.98v-.98Zm1.95,0h.98v.98h-.98v-.98Zm.98,0h.98v.98h-.98v-.98Zm.98,0h.98v.98h-.98v-.98Zm.98,0h.98v.98h-.98v-.98Zm.98,0h.98v.98h-.98v-.98Zm1.95,0h.98v.98h-.98v-.98Zm1.95,0h.98v.98h-.98v-.98Zm.98,0h.98v.98h-.98v-.98Zm.98,0h.98v.98h-.98v-.98Zm.98,0h.98v.98h-.98v-.98Zm3.91,0h.98v.98h-.98v-.98Zm1.95,0h.98v.98h-.98v-.98Zm1.95,0h.98v.98h-.98v-.98Zm1.95,0h.98v.98h-.98v-.98ZM0,8.8H.98v.98H0v-.98Zm.98,0h.98v.98H.98v-.98Zm1.95,0h.98v.98h-.98v-.98Zm1.95,0h.98v.98h-.98v-.98Zm1.95,0h.98v.98h-.98v-.98Zm.98,0h.98v.98h-.98v-.98Zm.98,0h.98v.98h-.98v-.98Zm4.89,0h.98v.98h-.98v-.98Zm.98,0h.98v.98h-.98v-.98Zm.98,0h.98v.98h-.98v-.98Zm2.93,0h.98v.98h-.98v-.98Zm.98,0h.98v.98h-.98v-.98Zm1.95,0h.98v.98h-.98v-.98Zm.98,0h.98v.98h-.98v-.98Zm.98,0h.98v.98h-.98v-.98Zm3.91,0h.98v.98h-.98v-.98ZM0,9.77H.98v.98H0v-.98Zm1.95,0h.98v.98h-.98v-.98Zm3.91,0h.98v.98h-.98v-.98Zm.98,0h.98v.98h-.98v-.98Zm.98,0h.98v.98h-.98v-.98Zm.98,0h.98v.98h-.98v-.98Zm1.95,0h.98v.98h-.98v-.98Zm.98,0h.98v.98h-.98v-.98Zm.98,0h.98v.98h-.98v-.98Zm.98,0h.98v.98h-.98v-.98Zm.98,0h.98v.98h-.98v-.98Zm1.95,0h.98v.98h-.98v-.98Zm3.91,0h.98v.98h-.98v-.98Zm.98,0h.98v.98h-.98v-.98ZM0,10.75H.98v.98H0v-.98Zm4.89,0h.98v.98h-.98v-.98Zm2.93,0h.98v.98h-.98v-.98Zm.98,0h.98v.98h-.98v-.98Zm.98,0h.98v.98h-.98v-.98Zm.98,0h.98v.98h-.98v-.98Zm2.93,0h.98v.98h-.98v-.98Zm1.95,0h.98v.98h-.98v-.98Zm2.93,0h.98v.98h-.98v-.98Zm.98,0h.98v.98h-.98v-.98Zm2.93,0h.98v.98h-.98v-.98Zm1.95,0h.98v.98h-.98v-.98Zm1.95,0h.98v.98h-.98v-.98ZM0,11.73H.98v.98H0v-.98Zm.98,0h.98v.98H.98v-.98Zm4.89,0h.98v.98h-.98v-.98Zm2.93,0h.98v.98h-.98v-.98Zm1.95,0h.98v.98h-.98v-.98Zm2.93,0h.98v.98h-.98v-.98Zm.98,0h.98v.98h-.98v-.98Zm.98,0h.98v.98h-.98v-.98Zm.98,0h.98v.98h-.98v-.98Zm1.95,0h.98v.98h-.98v-.98Zm5.86,0h.98v.98h-.98v-.98Zm.98,0h.98v.98h-.98v-.98ZM0,12.71H.98v.98H0v-.98Zm1.95,0h.98v.98h-.98v-.98Zm.98,0h.98v.98h-.98v-.98Zm3.91,0h.98v.98h-.98v-.98Zm2.93,0h.98v.98h-.98v-.98Zm1.95,0h.98v.98h-.98v-.98Zm1.95,0h.98v.98h-.98v-.98Zm.98,0h.98v.98h-.98v-.98Zm.98,0h.98v.98h-.98v-.98Zm1.95,0h.98v.98h-.98v-.98Zm.98,0h.98v.98h-.98v-.98Zm1.95,0h.98v.98h-.98v-.98Zm.98,0h.98v.98h-.98v-.98Zm1.95,0h.98v.98h-.98v-.98Zm3.91,0h.98v.98h-.98v-.98ZM1.95,13.68h.98v.98h-.98v-.98Zm3.91,0h.98v.98h-.98v-.98Zm1.95,0h.98v.98h-.98v-.98Zm.98,0h.98v.98h-.98v-.98Zm.98,0h.98v.98h-.98v-.98Zm2.93,0h.98v.98h-.98v-.98Zm.98,0h.98v.98h-.98v-.98Zm.98,0h.98v.98h-.98v-.98Zm2.93,0h.98v.98h-.98v-.98Zm1.95,0h.98v.98h-.98v-.98Zm1.95,0h.98v.98h-.98v-.98Zm.98,0h.98v.98h-.98v-.98Zm1.95,0h.98v.98h-.98v-.98Zm.98,0h.98v.98h-.98v-.98ZM0,14.66H.98v.98H0v-.98Zm1.95,0h.98v.98h-.98v-.98Zm7.82,0h.98v.98h-.98v-.98Zm1.95,0h.98v.98h-.98v-.98Zm1.95,0h.98v.98h-.98v-.98Zm.98,0h.98v.98h-.98v-.98Zm.98,0h.98v.98h-.98v-.98Zm3.91,0h.98v.98h-.98v-.98Zm1.95,0h.98v.98h-.98v-.98Zm.98,0h.98v.98h-.98v-.98Zm.98,0h.98v.98h-.98v-.98Zm2.93,0h.98v.98h-.98v-.98ZM0,15.64H.98v.98H0v-.98Zm.98,0h.98v.98H.98v-.98Zm.98,0h.98v.98h-.98v-.98Zm.98,0h.98v.98h-.98v-.98Zm.98,0h.98v.98h-.98v-.98Zm.98,0h.98v.98h-.98v-.98Zm.98,0h.98v.98h-.98v-.98Zm1.95,0h.98v.98h-.98v-.98Zm3.91,0h.98v.98h-.98v-.98Zm.98,0h.98v.98h-.98v-.98Zm3.91,0h.98v.98h-.98v-.98Zm5.86,0h.98v.98h-.98v-.98Zm1.95,0h.98v.98h-.98v-.98Zm.98,0h.98v.98h-.98v-.98ZM0,16.62H.98v.98H0v-.98Zm.98,0h.98v.98H.98v-.98Zm.98,0h.98v.98h-.98v-.98Zm.98,0h.98v.98h-.98v-.98Zm.98,0h.98v.98h-.98v-.98Zm2.93,0h.98v.98h-.98v-.98Zm2.93,0h.98v.98h-.98v-.98Zm2.93,0h.98v.98h-.98v-.98Zm.98,0h.98v.98h-.98v-.98Zm.98,0h.98v.98h-.98v-.98Zm.98,0h.98v.98h-.98v-.98Zm2.93,0h.98v.98h-.98v-.98Zm.98,0h.98v.98h-.98v-.98Zm1.95,0h.98v.98h-.98v-.98Zm.98,0h.98v.98h-.98v-.98Zm.98,0h.98v.98h-.98v-.98Zm1.95,0h.98v.98h-.98v-.98Zm1.95,0h.98v.98h-.98v-.98ZM0,17.59H.98v.98H0v-.98Zm1.95,0h.98v.98h-.98v-.98Zm2.93,0h.98v.98h-.98v-.98Zm.98,0h.98v.98h-.98v-.98Zm.98,0h.98v.98h-.98v-.98Zm.98,0h.98v.98h-.98v-.98Zm2.93,0h.98v.98h-.98v-.98Zm.98,0h.98v.98h-.98v-.98Zm2.93,0h.98v.98h-.98v-.98Zm.98,0h.98v.98h-.98v-.98Zm6.84,0h.98v.98h-.98v-.98Zm2.93,0h.98v.98h-.98v-.98ZM0,18.57H.98v.98H0v-.98Zm2.93,0h.98v.98h-.98v-.98Zm.98,0h.98v.98h-.98v-.98Zm4.89,0h.98v.98h-.98v-.98Zm.98,0h.98v.98h-.98v-.98Zm.98,0h.98v.98h-.98v-.98Zm2.93,0h.98v.98h-.98v-.98Zm.98,0h.98v.98h-.98v-.98Zm.98,0h.98v.98h-.98v-.98Zm1.95,0h.98v.98h-.98v-.98Zm.98,0h.98v.98h-.98v-.98Zm3.91,0h.98v.98h-.98v-.98Zm.98,0h.98v.98h-.98v-.98Zm2.93,0h.98v.98h-.98v-.98ZM0,19.55H.98v.98H0v-.98Zm1.95,0h.98v.98h-.98v-.98Zm3.91,0h.98v.98h-.98v-.98Zm.98,0h.98v.98h-.98v-.98Zm.98,0h.98v.98h-.98v-.98Zm.98,0h.98v.98h-.98v-.98Zm.98,0h.98v.98h-.98v-.98Zm.98,0h.98v.98h-.98v-.98Zm1.95,0h.98v.98h-.98v-.98Zm.98,0h.98v.98h-.98v-.98Zm1.95,0h.98v.98h-.98v-.98Zm.98,0h.98v.98h-.98v-.98Zm2.93,0h.98v.98h-.98v-.98Zm.98,0h.98v.98h-.98v-.98Zm.98,0h.98v.98h-.98v-.98Zm.98,0h.98v.98h-.98v-.98Zm.98,0h.98v.98h-.98v-.98Zm1.95,0h.98v.98h-.98v-.98Zm.98,0h.98v.98h-.98v-.98Zm.98,0h.98v.98h-.98v-.98Zm-19.55,.98h.98v.98h-.98v-.98Zm3.91,0h.98v.98h-.98v-.98Zm.98,0h.98v.98h-.98v-.98Zm.98,0h.98v.98h-.98v-.98Zm3.91,0h.98v.98h-.98v-.98Zm1.95,0h.98v.98h-.98v-.98Zm3.91,0h.98v.98h-.98v-.98Zm.98,0h.98v.98h-.98v-.98Zm.98,0h.98v.98h-.98v-.98Zm.98,0h.98v.98h-.98v-.98Zm.98,0h.98v.98h-.98v-.98ZM0,21.5H.98v.98H0v-.98Zm.98,0h.98v.98H.98v-.98Zm.98,0h.98v.98h-.98v-.98Zm.98,0h.98v.98h-.98v-.98Zm.98,0h.98v.98h-.98v-.98Zm.98,0h.98v.98h-.98v-.98Zm.98,0h.98v.98h-.98v-.98Zm1.95,0h.98v.98h-.98v-.98Zm1.95,0h.98v.98h-.98v-.98Zm2.93,0h.98v.98h-.98v-.98Zm1.95,0h.98v.98h-.98v-.98Zm1.95,0h.98v.98h-.98v-.98Zm.98,0h.98v.98h-.98v-.98Zm.98,0h.98v.98h-.98v-.98Zm.98,0h.98v.98h-.98v-.98Zm1.95,0h.98v.98h-.98v-.98Zm1.95,0h.98v.98h-.98v-.98Zm.98,0h.98v.98h-.98v-.98Zm.98,0h.98v.98h-.98v-.98ZM0,22.48H.98v.98H0v-.98Zm5.86,0h.98v.98h-.98v-.98Zm5.86,0h.98v.98h-.98v-.98Zm3.91,0h.98v.98h-.98v-.98Zm2.93,0h.98v.98h-.98v-.98Zm.98,0h.98v.98h-.98v-.98Zm3.91,0h.98v.98h-.98v-.98Zm3.91,0h.98v.98h-.98v-.98ZM0,23.46H.98v.98H0v-.98Zm1.95,0h.98v.98h-.98v-.98Zm.98,0h.98v.98h-.98v-.98Zm.98,0h.98v.98h-.98v-.98Zm1.95,0h.98v.98h-.98v-.98Zm1.95,0h.98v.98h-.98v-.98Zm.98,0h.98v.98h-.98v-.98Zm.98,0h.98v.98h-.98v-.98Zm1.95,0h.98v.98h-.98v-.98Zm1.95,0h.98v.98h-.98v-.98Zm.98,0h.98v.98h-.98v-.98Zm.98,0h.98v.98h-.98v-.98Zm.98,0h.98v.98h-.98v-.98Zm2.93,0h.98v.98h-.98v-.98Zm.98,0h.98v.98h-.98v-.98Zm.98,0h.98v.98h-.98v-.98Zm.98,0h.98v.98h-.98v-.98Zm.98,0h.98v.98h-.98v-.98Zm1.95,0h.98v.98h-.98v-.98Zm.98,0h.98v.98h-.98v-.98Zm.98,0h.98v.98h-.98v-.98ZM0,24.44H.98v.98H0v-.98Zm1.95,0h.98v.98h-.98v-.98Zm.98,0h.98v.98h-.98v-.98Zm.98,0h.98v.98h-.98v-.98Zm1.95,0h.98v.98h-.98v-.98Zm1.95,0h.98v.98h-.98v-.98Zm4.89,0h.98v.98h-.98v-.98Zm2.93,0h.98v.98h-.98v-.98Zm.98,0h.98v.98h-.98v-.98Zm.98,0h.98v.98h-.98v-.98Zm.98,0h.98v.98h-.98v-.98Zm3.91,0h.98v.98h-.98v-.98Zm1.95,0h.98v.98h-.98v-.98Zm.98,0h.98v.98h-.98v-.98Zm.98,0h.98v.98h-.98v-.98Zm.98,0h.98v.98h-.98v-.98ZM0,25.41H.98v.98H0v-.98Zm1.95,0h.98v.98h-.98v-.98Zm.98,0h.98v.98h-.98v-.98Zm.98,0h.98v.98h-.98v-.98Zm1.95,0h.98v.98h-.98v-.98Zm1.95,0h.98v.98h-.98v-.98Zm.98,0h.98v.98h-.98v-.98Zm.98,0h.98v.98h-.98v-.98Zm.98,0h.98v.98h-.98v-.98Zm.98,0h.98v.98h-.98v-.98Zm2.93,0h.98v.98h-.98v-.98Zm.98,0h.98v.98h-.98v-.98Zm1.95,0h.98v.98h-.98v-.98Zm.98,0h.98v.98h-.98v-.98Zm2.93,0h.98v.98h-.98v-.98Zm.98,0h.98v.98h-.98v-.98Zm.98,0h.98v.98h-.98v-.98Zm.98,0h.98v.98h-.98v-.98Zm.98,0h.98v.98h-.98v-.98Zm.98,0h.98v.98h-.98v-.98ZM0,26.39H.98v.98H0v-.98Zm5.86,0h.98v.98h-.98v-.98Zm1.95,0h.98v.98h-.98v-.98Zm1.95,0h.98v.98h-.98v-.98Zm.98,0h.98v.98h-.98v-.98Zm2.93,0h.98v.98h-.98v-.98Zm1.95,0h.98v.98h-.98v-.98Zm1.95,0h.98v.98h-.98v-.98Zm.98,0h.98v.98h-.98v-.98Zm.98,0h.98v.98h-.98v-.98Zm2.93,0h.98v.98h-.98v-.98Zm1.95,0h.98v.98h-.98v-.98Zm1.95,0h.98v.98h-.98v-.98ZM0,27.37H.98v.98H0v-.98Zm.98,0h.98v.98H.98v-.98Zm.98,0h.98v.98h-.98v-.98Zm.98,0h.98v.98h-.98v-.98Zm.98,0h.98v.98h-.98v-.98Zm.98,0h.98v.98h-.98v-.98Zm.98,0h.98v.98h-.98v-.98Zm1.95,0h.98v.98h-.98v-.98Zm.98,0h.98v.98h-.98v-.98Zm.98,0h.98v.98h-.98v-.98Zm.98,0h.98v.98h-.98v-.98Zm.98,0h.98v.98h-.98v-.98Zm3.91,0h.98v.98h-.98v-.98Zm.98,0h.98v.98h-.98v-.98Zm.98,0h.98v.98h-.98v-.98Zm.98,0h.98v.98h-.98v-.98Zm1.95,0h.98v.98h-.98v-.98Zm1.95,0h.98v.98h-.98v-.98Zm.98,0h.98v.98h-.98v-.98Zm.98,0h.98v.98h-.98v-.98Zm.98,0h.98v.98h-.98v-.98Z"/>
    </g>
  </g>
</svg>