{
    "asset" : {
        "generator" : "Khronos glTF Blender I/O v3.2.43",
        "version" : "2.0"
    },
    "scene" : 0,
    "scenes" : [
        {
            "name" : "Scene",
            "nodes" : [
                0
            ]
        }
    ],
    "nodes" : [
        {
            "mesh" : 0,
            "name" : "1631021810.971537"
        }
    ],
    "materials" : [
        {
            "doubleSided" : true,
            "name" : "Material.002",
            "pbrMetallicRoughness" : {
                "baseColorFactor" : [
                    0.800000011920929,
                    0.800000011920929,
                    0.800000011920929,
                    1
                ],
                "roughnessFactor" : 0
            }
        }
    ],
    "meshes" : [
        {
            "name" : "1631021810.971537",
            "primitives" : [
                {
                    "attributes" : {
                        "POSITION" : 0,
                        "NORMAL" : 1
                    },
                    "indices" : 2,
                    "material" : 0
                }
            ]
        }
    ],
    "accessors" : [
        {
            "bufferView" : 0,
            "componentType" : 5126,
            "count" : 16787,
            "max" : [
                1.4704114198684692,
                2.9165797233581543,
                1.0538856983184814
            ],
            "min" : [
                -1.5770313739776611,
                -1.703808069229126,
                -1.476310133934021
            ],
            "type" : "VEC3"
        },
        {
            "bufferView" : 1,
            "componentType" : 5126,
            "count" : 16787,
            "type" : "VEC3"
        },
        {
            "bufferView" : 2,
            "componentType" : 5123,
            "count" : 86655,
            "type" : "SCALAR"
        }
    ],
    "bufferViews" : [
        {
            "buffer" : 0,
            "byteLength" : 201444,
            "byteOffset" : 0
        },
        {
            "buffer" : 0,
            "byteLength" : 201444,
            "byteOffset" : 201444
        },
        {
            "buffer" : 0,
            "byteLength" : 173310,
            "byteOffset" : 402888
        }
    ],
    "buffers" : [
        {
            "byteLength" : 576200,
            "uri" : "data:application/octet-stream;base64,"
        }
    ]
}
